<?xml version="1.0" encoding="utf-8"?>
<!-- Generator: Adobe Illustrator 19.0.0, SVG Export Plug-In . SVG Version: 6.00 Build 0)  -->
<svg version="1.1" id="Layer_1" xmlns="http://www.w3.org/2000/svg" xmlns:xlink="http://www.w3.org/1999/xlink" x="0px" y="0px"
	 viewBox="-406 257 145.5 48" style="enable-background:new -406 257 145.5 48;" xml:space="preserve">
<style type="text/css">
	.st0{opacity:0.4;fill:url(#SVGID_1_);enable-background:new    ;}
	.st1{fill:url(#SVGID_2_);}
	.st2{fill:url(#SVGID_3_);}
	.st3{fill:url(#SVGID_4_);}
	.st4{fill:url(#SVGID_5_);}
	.st5{fill:url(#SVGID_6_);}
</style>
<g>
	<g>
		
			<linearGradient id="SVGID_1_" gradientUnits="userSpaceOnUse" x1="-397.1729" y1="296.2177" x2="-365.6842" y2="279.9778" gradientTransform="matrix(1 0 0 -1 0 568)">
			<stop  offset="0" style="stop-color:#62CFF4"/>
			<stop  offset="1" style="stop-color:#2C67F2"/>
		</linearGradient>
		<path class="st0" d="M-379.3,301c11,0,20-9,20-20s-9-20-20-20s-20,9-20,20S-390.3,301-379.3,301z"/>
		
			<linearGradient id="SVGID_2_" gradientUnits="userSpaceOnUse" x1="-387.1065" y1="290.0792" x2="-373.5275" y2="284.6362" gradientTransform="matrix(0.8218 0.5698 0.5698 -0.8218 -231.0806 732.979)">
			<stop  offset="0" style="stop-color:#62CFF4"/>
			<stop  offset="1" style="stop-color:#2C67F2"/>
		</linearGradient>
		<path class="st1" d="M-384.7,277.1L-384.7,277.1c1.2,1.4,1.1,3.5-0.3,4.8l-3.4,3c-1.4,1.3-1,2.2,0.9,2.2l12.6,0c1.6,0,2-0.9,1-2.1
			h0c-1.2-1.4-1.1-3.5,0.3-4.8l3.4-3c1.4-1.3,1-2.2-0.9-2.2l-12.6,0C-385.3,275-385.7,275.9-384.7,277.1z"/>
	</g>
	<g>
		
			<linearGradient id="SVGID_3_" gradientUnits="userSpaceOnUse" x1="-356.6334" y1="284.6582" x2="-259.6374" y2="264.5346" gradientTransform="matrix(1 0 0 -1 0 564)">
			<stop  offset="0" style="stop-color:#62CFF4"/>
			<stop  offset="1" style="stop-color:#2C67F2"/>
		</linearGradient>
		<path class="st2" d="M-345.5,288.6h10.1v4.5h-15.9V269h5.8V288.6z"/>
		
			<linearGradient id="SVGID_4_" gradientUnits="userSpaceOnUse" x1="-355.6342" y1="289.4743" x2="-258.6382" y2="269.3507" gradientTransform="matrix(1 0 0 -1 0 564)">
			<stop  offset="0" style="stop-color:#62CFF4"/>
			<stop  offset="1" style="stop-color:#2C67F2"/>
		</linearGradient>
		<path class="st3" d="M-313.6,281.5c0,2.3-0.4,4.4-1.3,6.2c-0.9,1.8-2.1,3.2-3.7,4.2s-3.4,1.5-5.5,1.5s-3.9-0.5-5.5-1.4
			s-2.8-2.3-3.7-4c-0.9-1.8-1.4-3.8-1.4-6v-1.4c0-2.4,0.4-4.4,1.3-6.2s2.1-3.2,3.7-4.2s3.5-1.5,5.5-1.5s3.9,0.5,5.5,1.5
			s2.8,2.4,3.7,4.1c0.9,1.8,1.3,3.8,1.3,6.2v1H-313.6z M-319.5,280.5c0-2.4-0.4-4.2-1.2-5.4s-1.9-1.9-3.4-1.9
			c-2.9,0-4.4,2.2-4.6,6.5v1.8c0,2.4,0.4,4.2,1.2,5.4c0.8,1.3,1.9,1.9,3.5,1.9c1.5,0,2.6-0.6,3.4-1.9c0.8-1.2,1.2-3,1.2-5.4v-1
			H-319.5z"/>
		
			<linearGradient id="SVGID_5_" gradientUnits="userSpaceOnUse" x1="-354.6477" y1="294.2294" x2="-257.6517" y2="274.1057" gradientTransform="matrix(1 0 0 -1 0 564)">
			<stop  offset="0" style="stop-color:#62CFF4"/>
			<stop  offset="1" style="stop-color:#2C67F2"/>
		</linearGradient>
		<path class="st4" d="M-290.9,290.1c-0.9,1-2.2,1.8-3.9,2.4c-1.7,0.6-3.6,0.9-5.7,0.9c-3.2,0-5.7-1-7.6-2.9s-2.9-4.6-3-8.1v-2.1
			c0-2.4,0.4-4.4,1.3-6.2c0.8-1.8,2-3.1,3.6-4.1s3.4-1.4,5.4-1.4c3,0,5.3,0.7,7,2.1s2.6,3.4,2.9,6.1h-5.6c-0.2-1.3-0.6-2.3-1.3-2.9
			c-0.7-0.6-1.6-0.9-2.8-0.9c-1.5,0-2.6,0.6-3.4,1.9c-0.8,1.2-1.2,3-1.2,5.3v1.5c0,2.4,0.4,4.2,1.2,5.4c0.8,1.2,2.1,1.8,3.9,1.8
			c1.5,0,2.6-0.3,3.4-1v-3.7h-4v-4h9.8L-290.9,290.1L-290.9,290.1z"/>
		
			<linearGradient id="SVGID_6_" gradientUnits="userSpaceOnUse" x1="-353.7193" y1="298.7037" x2="-256.7234" y2="278.58" gradientTransform="matrix(1 0 0 -1 0 564)">
			<stop  offset="0" style="stop-color:#62CFF4"/>
			<stop  offset="1" style="stop-color:#2C67F2"/>
		</linearGradient>
		<path class="st5" d="M-267.2,281.5c0,2.3-0.4,4.4-1.3,6.2c-0.9,1.8-2.1,3.2-3.7,4.2c-1.6,1-3.4,1.5-5.5,1.5s-3.9-0.5-5.5-1.4
			s-2.8-2.3-3.7-4c-0.9-1.8-1.4-3.8-1.4-6v-1.4c0-2.4,0.4-4.4,1.3-6.2c0.9-1.8,2.1-3.2,3.7-4.2s3.5-1.5,5.5-1.5s3.9,0.5,5.5,1.5
			s2.8,2.4,3.7,4.1c0.9,1.8,1.3,3.8,1.3,6.2L-267.2,281.5L-267.2,281.5z M-273.1,280.5c0-2.4-0.4-4.2-1.2-5.4
			c-0.8-1.2-1.9-1.9-3.4-1.9c-2.9,0-4.4,2.2-4.6,6.5v1.8c0,2.4,0.4,4.2,1.2,5.4c0.8,1.3,1.9,1.9,3.5,1.9c1.5,0,2.6-0.6,3.4-1.9
			c0.8-1.2,1.2-3,1.2-5.4L-273.1,280.5L-273.1,280.5z"/>
	</g>
</g>
</svg>
