<?xml version="1.0" encoding="utf-8"?>
<!-- Generator: Adobe Illustrator 19.0.0, SVG Export Plug-In . SVG Version: 6.00 Build 0)  -->
<svg version="1.1" id="Layer_1" xmlns="http://www.w3.org/2000/svg" xmlns:xlink="http://www.w3.org/1999/xlink" x="0px" y="0px"
	 viewBox="-455 257 48 48" style="enable-background:new -455 257 48 48;" xml:space="preserve">
<style type="text/css">
	.st0{opacity:0.4;fill:url(#SVGID_1_);enable-background:new    ;}
	.st1{fill:url(#SVGID_2_);}
</style>
<linearGradient id="SVGID_1_" gradientUnits="userSpaceOnUse" x1="-448.8349" y1="292.1981" x2="-417.3462" y2="275.9582" gradientTransform="matrix(1 0 0 -1 0 564)">
	<stop  offset="0" style="stop-color:#62CFF4"/>
	<stop  offset="1" style="stop-color:#2C67F2"/>
</linearGradient>
<path class="st0" d="M-431,301c11,0,20-9,20-20s-9-20-20-20s-20,9-20,20S-442,301-431,301z"/>
<linearGradient id="SVGID_2_" gradientUnits="userSpaceOnUse" x1="-438.681" y1="286.0728" x2="-425.102" y2="280.6298" gradientTransform="matrix(0.823 0.568 0.568 -0.823 -237.0257 758.7271)">
	<stop  offset="0" style="stop-color:#62CFF4"/>
	<stop  offset="1" style="stop-color:#2C67F2"/>
</linearGradient>
<path class="st1" d="M-436.4,277.1L-436.4,277.1c1.2,1.4,1.1,3.6-0.3,4.8l-3.4,3c-1.4,1.2-1,2.2,0.9,2.2l12.6,0c1.5,0,2-1,0.9-2.1
	l0,0c-1.2-1.4-1.1-3.6,0.3-4.8l3.4-3c1.4-1.2,1-2.2-0.9-2.2l-12.6,0C-436.9,275-437.4,275.9-436.4,277.1z"/>
</svg>
